PathFileType	4	(X/Y/Z)	G:\Shared drives\HPL_Drive\Nord Sprinting Study\Kristen_Nord_test\Trimmed_Nord000005.trc
DataRate	CameraRate	NumFrames	NumMarkers	Units	OrigDataRate	OrigDataStartFrame	OrigNumFrames
200.00	200.00	      7	52	mm	200.00	935	      2491
Frame#	Time	C7			R_Shoulder			L_Shoulder			Sternum			R_humerus			R_elbow_med			R_elbow_lat			R_forearm			R_wrist_radius			R_wrist_ulna			L_humerus			L_elbow_med			L_elbow_lat			L_forearm			L_wrist_radius			L_wrist_ulna			r.ASIS			r.PSIS			r_IC			L.ASIS			L.PSIS			l_IC			r_thigh1			r_thigh2			r_thigh3			r_thigh4			r_thigh5			r_knee			r_mknee			r_shank_antsup			r_sh2			r_sh3			r_sh4			r_ankle			r_mankle			r_calc			r_5meta			r_toe			L_thigh1			L_thigh2			L_thigh3			L_thigh4			L_knee			L_mknee			L_shank_antsup			L_sh2			L_sh3			L_ankle			L_mankle			L_calc			L_5meta			L_toe			
		X1	Y1	Z1	X2	Y2	Z2	X3	Y3	Z3	X4	Y4	Z4	X5	Y5	Z5	X6	Y6	Z6	X7	Y7	Z7	X8	Y8	Z8	X9	Y9	Z9	X10	Y10	Z10	X11	Y11	Z11	X12	Y12	Z12	X13	Y13	Z13	X14	Y14	Z14	X15	Y15	Z15	X16	Y16	Z16	X17	Y17	Z17	X18	Y18	Z18	X19	Y19	Z19	X20	Y20	Z20	X21	Y21	Z21	X22	Y22	Z22	X23	Y23	Z23	X24	Y24	Z24	X25	Y25	Z25	X26	Y26	Z26	X27	Y27	Z27	X28	Y28	Z28	X29	Y29	Z29	X30	Y30	Z30	X31	Y31	Z31	X32	Y32	Z32	X33	Y33	Z33	X34	Y34	Z34	X35	Y35	Z35	X36	Y36	Z36	X37	Y37	Z37	X38	Y38	Z38	X39	Y39	Z39	X40	Y40	Z40	X41	Y41	Z41	X42	Y42	Z42	X43	Y43	Z43	X44	Y44	Z44	X45	Y45	Z45	X46	Y46	Z46	X47	Y47	Z47	X48	Y48	Z48	X49	Y49	Z49	X50	Y50	Z50	X51	Y51	Z51	X52	Y52	Z52	

935	4.670	1198.21948	517.26373	1257.32227	1315.97339	562.22382	1254.09021	1062.88098	557.04572	1267.59277	1187.10120	641.93555	1199.75049	1490.74182	531.57233	1222.49255	1619.23718	552.64990	1135.19531	1614.66541	489.86469	1182.67627	1616.39038	556.25250	1294.90381	1594.32776	647.61804	1367.97900	1631.60168	623.04535	1386.22253	862.86554	512.39868	1237.40356	749.40820	540.96558	1154.90540	749.77051	476.08963	1198.51477	791.62177	555.84052	1317.41650	834.52393	629.28448	1371.79333	784.24768	612.67419	1392.73120	1307.01172	563.14191	730.04852	1265.67639	416.63965	854.60205	1344.68823	527.47766	834.70380	1068.03394	542.62994	729.29926	1148.82959	409.02274	848.25360	1045.13770	511.17734	823.84045	1378.11938	459.63889	501.65167	1375.97791	421.46881	392.92966	1390.76465	368.25061	381.33292	1389.98645	358.81931	539.76453	1372.33228	321.55640	427.01425	1377.18445	345.79514	304.61493	1251.94775	327.25244	318.64664	1399.06799	216.50525	311.59805	1383.47412	97.89976	324.17587	1395.49670	222.58925	387.42053	1382.79114	109.11456	406.36917	1371.09912	-62.87260	383.08469	1292.79407	-56.48305	352.94525	1313.50574	-81.27200	442.74356	1389.34192	-153.99484	298.17117	1352.90564	-138.71596	242.57918	1005.02612	445.19025	502.78867	1006.11145	400.01987	369.74448	1007.53644	333.64267	546.22430	1016.74146	293.35043	414.14609	996.01740	313.31656	330.29428	1122.25513	313.96744	304.09192	981.74738	201.10548	319.87274	999.18616	214.97383	408.41861	1014.63544	95.02201	413.65427	1022.60822	-88.50700	391.25580	1092.50439	-64.06903	336.94501	1075.08594	-89.14569	437.68814	1023.74707	-185.48146	287.16098	1055.20178	-156.15277	231.76378	
936	4.675	1198.21436	517.59918	1257.21704	1315.95581	562.57843	1253.96045	1062.88892	557.50031	1267.35168	1187.07837	642.22797	1199.58606	1490.73120	531.91858	1222.39099	1620.06787	552.69659	1134.81201	1614.65479	490.20520	1182.54468	1616.27832	556.62286	1294.80481	1594.22510	648.07306	1367.76355	1631.47559	623.51581	1386.09998	862.81818	512.76392	1237.24194	748.36395	541.14014	1155.42920	749.77069	476.44510	1198.39673	791.51715	556.27985	1317.25293	834.44708	629.74744	1371.56897	784.14355	613.13123	1392.50293	1307.12720	563.16608	729.95062	1265.80139	416.77417	854.57367	1344.78406	527.58295	834.59637	1068.11768	542.65320	729.27313	1148.90076	409.11395	848.30719	1045.24609	511.32953	823.82825	1378.13965	459.64893	501.63931	1375.97327	421.47855	392.88806	1391.22217	367.99496	381.58792	1390.04724	358.83069	539.75446	1372.42810	321.56342	427.00543	1377.20398	345.80341	304.60925	1252.00098	327.21176	318.68024	1399.21826	216.51263	311.57864	1383.70728	97.93212	324.17474	1395.63257	222.63542	387.37894	1382.99280	109.11754	406.37375	1371.40649	-62.83931	383.05157	1293.14294	-56.54010	352.96429	1313.84546	-81.27303	442.78076	1389.70886	-154.00299	298.21716	1353.32605	-138.80701	242.55411	1005.03632	445.22095	502.76620	1006.14789	400.02359	369.76349	1007.61871	333.66037	546.25293	1016.77905	293.33640	414.15204	996.63513	313.26221	330.33817	1122.26685	313.98340	304.08826	981.74823	201.13596	319.81705	999.90381	214.95470	407.92419	1015.64838	93.35471	412.43784	1022.58411	-88.46585	391.26904	1092.46082	-64.03539	336.95538	1075.08948	-89.12431	437.67606	1023.62671	-185.46634	287.19269	1055.09766	-156.12816	231.76855	
937	4.680	1198.18689	517.97449	1257.17517	1315.94946	562.95697	1253.90002	1062.82507	557.83539	1267.24646	1187.10266	642.53094	1199.48828	1490.72034	532.26343	1222.33826	1620.01721	552.96790	1134.71765	1614.60315	490.47867	1182.49109	1616.19006	557.00439	1294.69104	1594.10986	648.51617	1367.56702	1631.46313	623.59497	1386.10352	862.61664	513.21393	1237.23560	749.42169	541.63257	1154.51025	749.76550	476.82016	1198.17834	791.47900	556.74957	1316.99976	834.38831	630.23962	1371.33289	783.91510	613.56018	1392.12439	1307.22131	563.21387	729.89117	1265.87048	416.86340	854.61487	1344.85083	527.70099	834.59729	1068.25061	542.76703	729.14246	1148.94543	409.16119	848.17450	1045.35461	511.44742	823.79425	1377.83875	460.04437	501.38351	1376.04272	420.71915	392.78531	1391.25659	367.98407	381.55106	1389.89661	358.78555	539.60034	1372.47742	321.54300	427.01163	1377.22339	345.82816	304.61383	1252.03870	327.14029	318.71167	1399.29761	216.55739	311.53763	1384.34753	97.56962	324.10660	1395.76428	222.67169	387.37067	1383.26819	109.15732	406.37277	1371.52808	-62.79747	383.01385	1293.45752	-56.57452	352.97702	1314.19971	-81.28169	442.82108	1389.66553	-153.93147	298.13016	1353.68518	-138.79897	242.64066	1005.10144	445.22244	502.79141	1006.15009	400.02734	369.77713	1007.69739	333.62888	546.28619	1016.83624	293.33231	414.17511	996.00842	313.27240	330.43759	1122.27173	314.00266	304.09955	981.65021	201.04945	319.95480	999.20062	215.01964	408.44141	1014.61481	95.03577	413.69250	1022.58197	-88.42238	391.30573	1092.43567	-64.04399	336.96515	1075.12305	-89.08858	437.67163	1023.56439	-185.45291	287.23486	1054.97314	-156.11826	231.78975	
938	4.685	1198.15002	518.28101	1257.14307	1315.91650	563.35944	1253.84753	1062.74329	558.07080	1267.28284	1187.06226	642.86182	1199.38818	1490.73938	532.61072	1222.22974	1619.14929	553.47998	1134.85522	1614.60156	490.76758	1182.40295	1616.13513	557.39746	1294.58008	1594.23950	648.33606	1367.17102	1631.41589	624.04059	1385.91528	862.55402	513.64880	1237.13513	749.41010	541.97900	1154.29785	749.67102	477.22559	1198.02722	791.42798	557.22449	1316.76111	834.29840	630.80939	1371.10730	783.81775	614.02209	1391.86792	1307.33325	563.25659	729.82587	1265.96606	416.97491	854.62360	1344.91174	527.82074	834.56696	1068.33447	542.81616	729.07623	1149.09509	409.35944	848.36536	1045.47803	511.58511	823.75391	1378.29126	459.70615	501.54419	1376.04761	420.69174	392.76093	1391.27832	367.95508	381.54922	1390.20203	358.88419	539.71362	1373.33838	322.30386	427.02982	1377.24658	345.81012	304.56131	1252.08179	327.11127	318.74167	1399.21179	216.49226	311.69495	1384.51245	97.59113	324.08978	1395.87561	222.67744	387.33228	1383.49292	109.15779	406.36417	1371.90698	-62.80221	383.06598	1293.68726	-56.61307	352.98965	1314.52600	-81.29050	442.84293	1390.41602	-153.94472	298.30469	1353.96997	-138.88423	242.66637	1005.16632	445.24979	502.75977	1006.22546	400.03812	369.78925	1007.75720	333.68713	546.30646	1016.86847	293.37424	414.17758	996.09473	313.34668	330.36212	1122.28223	314.00360	304.10333	981.73547	201.08273	319.98935	999.26202	215.03485	408.46503	1014.69440	95.06232	413.69354	1022.60547	-88.40219	391.34732	1092.43213	-64.01205	336.99100	1075.14392	-89.05710	437.67917	1023.53784	-185.42285	287.30215	1054.91626	-156.10695	231.82185	
939	4.690	1198.10291	518.66797	1257.13916	1315.89807	563.74030	1253.77930	1062.77380	558.49835	1267.00781	1187.01709	643.16864	1199.33777	1490.74133	532.95068	1222.18225	1618.97107	553.89044	1134.89722	1614.57324	491.08633	1182.38013	1616.03271	557.82874	1294.47119	1593.91296	649.38971	1367.20703	1630.87048	624.73804	1385.66040	862.56708	514.03198	1236.88196	749.40143	542.36768	1154.07764	749.71497	477.65234	1197.78125	791.37408	557.67310	1316.53845	834.22473	631.29755	1370.91516	783.70422	614.46533	1391.60974	1307.44409	563.30737	729.74432	1265.90552	417.29071	854.50995	1344.97876	527.94183	834.55426	1068.43433	542.87439	729.00800	1149.24365	409.47226	848.33948	1045.59595	511.72989	823.68921	1378.34521	459.71002	501.51453	1376.03589	420.70480	392.68823	1390.89673	368.25302	381.24991	1390.30237	358.94916	539.68713	1373.40967	322.30435	427.00735	1377.26062	345.81015	304.55798	1252.10657	327.05255	318.75906	1399.24731	216.47162	311.61893	1384.64368	97.60503	324.06024	1396.00415	222.66872	387.26413	1383.70654	109.18325	406.33395	1372.16028	-62.77344	383.14615	1293.92529	-56.66914	353.05450	1314.67517	-81.28970	442.81924	1390.45898	-153.87323	298.26523	1354.23853	-138.85991	242.80766	1005.18420	445.29138	502.81027	1006.20465	400.01422	369.81244	1007.81812	333.73267	546.30853	1016.91406	293.38821	414.19897	996.04266	313.28131	330.48492	1122.27954	314.02704	304.08542	981.71454	201.10002	319.99146	999.28918	215.07808	408.53922	1015.17755	94.41341	413.50378	1022.64746	-88.36649	391.37564	1092.46899	-63.98438	336.98856	1075.11560	-89.08240	437.60196	1023.56342	-185.41154	287.33777	1054.93896	-156.09319	231.82202	
940	4.695	1198.12756	519.05896	1257.01587	1316.00195	564.23181	1253.75391	1062.67493	558.76849	1267.04565	1187.01965	643.45984	1199.22998	1490.74756	533.29645	1222.11047	1619.01587	554.14001	1134.82642	1614.62280	491.39337	1182.29102	1615.96240	558.25562	1294.34265	1593.81897	649.87183	1367.01770	1630.76074	625.21387	1385.52380	862.54498	514.40326	1236.74072	749.44031	542.78754	1153.80176	749.66687	478.06161	1197.59436	791.28101	558.09851	1316.39197	834.11206	631.74414	1370.51758	783.72797	614.95929	1391.54602	1307.56140	563.37476	729.65186	1266.02087	417.42746	854.45398	1345.05945	528.05774	834.44232	1068.54358	542.94745	728.97058	1149.29163	409.56348	848.37653	1045.70276	511.84927	823.65350	1378.40649	459.74713	501.43747	1376.10950	420.69968	392.69086	1390.92261	368.24933	381.24747	1390.37329	358.94788	539.65619	1373.47473	322.30579	427.01587	1377.27051	345.80759	304.56177	1252.13928	326.99719	318.79617	1399.43726	216.44479	311.43402	1384.77283	97.61483	324.03406	1396.11951	222.71916	387.23621	1383.91125	109.18088	406.30563	1372.47778	-62.74969	383.10114	1294.13892	-56.71366	353.12546	1314.92737	-81.29253	442.86862	1390.77271	-153.86575	298.30627	1354.48755	-138.95015	242.73958	1005.24957	445.29922	502.77029	1006.23041	400.04477	369.81573	1007.91211	333.72699	546.33063	1016.92242	293.39133	414.18945	996.69684	313.29636	330.44849	1122.27905	314.03458	304.07928	981.82104	201.20813	320.01053	999.31140	215.10396	408.53223	1015.23981	94.41428	413.51810	1022.71173	-88.31794	391.39380	1092.50281	-63.95293	336.98407	1075.12280	-89.00137	437.65457	1023.63983	-185.39830	287.36273	1054.99194	-156.07869	231.87878	
941	4.700	1198.07874	519.43024	1257.01453	1316.01416	564.66150	1253.66711	1062.77283	559.24408	1266.80640	1187.03394	643.78979	1199.14099	1490.73755	533.65802	1222.08496	1619.01099	554.44647	1134.76941	1614.57788	491.76865	1182.32874	1615.87988	558.66095	1294.28601	1593.72473	650.31195	1366.84900	1630.68994	625.70184	1385.34387	862.71393	514.71625	1236.40393	749.47864	543.19788	1153.55176	749.65002	478.46274	1197.39050	791.21539	558.51746	1316.10083	834.01465	632.25690	1370.25439	783.49768	615.33173	1391.20154	1307.63196	563.45148	729.61786	1266.11951	417.55194	854.47662	1345.12659	528.21539	834.41895	1068.59412	542.89099	729.04340	1149.38831	409.69232	848.36963	1045.81897	511.96417	823.63867	1378.47937	459.72131	501.36411	1376.12964	420.74316	392.63376	1391.36938	368.02811	381.47095	1390.43665	358.98123	539.62012	1373.52722	322.32321	427.00333	1377.26904	345.82321	304.59149	1252.14233	326.96906	318.82083	1399.52710	216.43269	311.37827	1384.91321	97.62027	324.02362	1396.19861	222.66980	387.19119	1384.11401	109.19086	406.30008	1372.71826	-62.76495	383.14316	1294.34973	-56.72779	353.14728	1315.29272	-81.29613	443.01245	1391.40894	-153.88087	298.50882	1354.69849	-139.01076	242.81871	1005.28503	445.30875	502.77713	1006.28778	400.07574	369.81427	1007.99976	333.75220	546.32831	1016.96039	293.36969	414.20416	996.08032	313.31766	330.53329	1122.30750	314.06418	304.10297	981.77588	201.17091	320.06339	999.47180	215.35219	408.65521	1014.59454	95.08948	413.60889	1022.78680	-88.29553	391.41360	1092.56909	-63.92877	336.99615	1075.34753	-88.93798	437.75150	1023.74176	-185.36902	287.37866	1055.07117	-156.10124	231.90489	
